<?xml version="1.0" encoding="iso-8859-1"?>
<!-- Generator: Adobe Illustrator 28.0.0, SVG Export Plug-In . SVG Version: 6.00 Build 0)  -->
<svg xmlns="http://www.w3.org/2000/svg" xmlns:xlink="http://www.w3.org/1999/xlink" version="1.1" id="Layer_1" x="0px" y="0px" viewBox="0 0 512 512" style="enable-background:new 0 0 512 512;" xml:space="preserve">
<g>
	<g>
		<path style="fill:#B1B9C6;" d="M360.018,7.869c-20.495-12.913-66.813,29.549-86.906,49.599    c-12.038,0.704-27.18,3.308-44.298,7.274c-17.155,3.813-31.94,8.002-43.103,12.564c-26.791-9.421-86.892-27.708-99.797-7.225    c-12.817,20.342,16.444,61.562,30.768,79.636c-7.09,22.028-6.461,44.247-2.304,62.56c3.594,15.836,9.07,31.223,16.453,46.178    c14.412,29.188,44.198,47.352,76.738,46.593c25.127-0.595,49.703-3.62,73.727-9.072c24.025-5.453,47.498-13.334,70.42-23.644    c29.679-13.363,48.705-42.606,49.105-75.155c0.204-16.677-1.499-32.921-5.094-48.757c-4.155-18.309-13.176-38.617-29.073-55.424    C371.753,70.535,380.367,20.69,360.018,7.869z"/>
		<g>
			<path style="fill:#91A2B5;" d="M248.389,72.184c5.949,26.212,3.142,49.178-6.231,51.305     c-9.393,2.132-21.839-17.372-27.789-43.584c-0.815-3.593-1.467-7.117-1.947-10.532c10.945-3.012,22.004-5.522,33.181-7.51     C246.645,65.151,247.578,68.611,248.389,72.184z"/>
			<g>
				<path style="fill:#91A2B5;" d="M209.906,71.864c5.945,26.192,3.162,49.173-6.231,51.305      c-9.032,2.05-20.945-16.034-27.115-40.803c5.494-2.851,11.289-5.306,17.33-7.331c5.18-1.724,10.383-3.349,15.618-4.832      C209.655,70.76,209.778,71.302,209.906,71.864z"/>
				<path style="fill:#91A2B5;" d="M283.506,57.861c5.189,25.097,2.278,46.673-6.794,48.732      c-9.393,2.132-21.824-17.396-27.769-43.589c-0.128-0.562-0.251-1.104-0.358-1.671c6.154-1.059,12.37-1.942,18.597-2.68      C272.668,57.999,278.121,57.754,283.506,57.861z"/>
			</g>
		</g>
		<path style="fill:#FFFFFF;" d="M349.601,52.632c0,0,4.104,5.527,6.108,12.311c1.866,6.267-0.866,11.993-5.423,15.16    C337.028,70.512,321.8,63.67,305.564,60.2c-0.643-3.484,0.032-7.204,2.264-10.391c8.952-12.816,22.037-27.415,34.096-25.424    C362.932,27.869,349.601,52.632,349.601,52.632z"/>
		<path style="fill:#FFFFFF;" d="M114.619,105.965c0,0-1.316,6.757-0.195,13.741c1.023,6.458,5.958,10.445,11.436,11.333    c7.818-14.374,18.601-27.12,31.748-37.258c-0.924-3.42-3.139-6.484-6.527-8.396c-13.607-7.696-31.713-15.215-41.731-8.214    C91.904,89.383,114.619,105.965,114.619,105.965z"/>
		<path style="fill:#67828E;" d="M401.102,147.202c-3.11-13.704-10.637-36.057-28.447-55.855    c2.616-12.054,5.491-28.705,5.721-44.458c0.326-22.332-4.865-37.03-15.43-43.686c-21.601-13.609-61.785,18.704-92.264,48.911    c-11.505,0.853-25.917,3.276-43.065,7.249c-17.224,3.828-31.285,7.871-42.038,12.072C145.037,57.358,94.833,45.563,81.241,67.14    c-13.791,21.89,11.57,60.883,29.31,83.694c-7.519,25.546-4.659,48.96-1.549,62.664c3.678,16.203,9.359,32.151,16.886,47.399    c14.99,30.356,46.137,49.686,79.765,49.686c0.68,0,1.363-0.008,2.045-0.024c25.379-0.602,50.55-3.7,74.816-9.208    c24.27-5.508,48.313-13.58,71.463-23.993c31.379-14.128,51.929-45.575,52.353-80.113    C406.539,180.243,404.78,163.406,401.102,147.202z M349.454,267.306c-22.48,10.112-45.823,17.949-69.379,23.296    c-23.553,5.346-47.992,8.353-72.636,8.938c-30.135,0.69-58.266-16.382-71.668-43.523c-7.144-14.472-12.534-29.598-16.02-44.959    c-3.849-16.958-7.32-50.202,12.68-82.306c1.61-2.583,0.82-5.982-1.763-7.592c-2.583-1.612-5.984-0.82-7.592,1.763    c-3.224,5.174-5.882,10.37-8.082,15.531C92.952,108.703,83.62,84.041,90.567,73.015c6.776-10.754,37.215-8.639,80.657,5.249    c-6.027,3.43-11.733,7.134-16.952,11.069c-2.43,1.832-2.915,5.288-1.083,7.718c1.083,1.438,2.734,2.194,4.405,2.194    c1.155,0,2.32-0.361,3.313-1.111c5.522-4.163,11.62-8.078,18.123-11.634c10.348-5.65,27.5-11.16,51.027-16.389    c23.434-5.43,41.279-7.861,53.051-7.234c7.399,0.4,14.59,1.299,21.374,2.67c2.98,0.598,5.89-1.327,6.494-4.31    c0.603-2.984-1.327-5.891-4.31-6.494c-6.412-1.297-13.159-2.174-20.074-2.666c32.788-30.84,59.882-46.225,70.48-39.55    c11.186,7.048,13.392,32.754,6.234,69.572c-4.214-3.706-8.856-7.247-13.999-10.524c-2.568-1.635-5.974-0.879-7.61,1.687    c-1.635,2.567-0.88,5.973,1.687,7.609c31.901,20.325,43.12,51.809,46.969,68.768c3.487,15.361,5.155,31.331,4.957,47.468    C394.938,227.377,376.938,254.931,349.454,267.306z"/>
		<g>
			<path style="fill:#605C5D;" d="M333.288,175.734c-1.978-8.715-10.647-14.177-19.362-12.199     c-8.716,1.978-14.177,10.647-12.199,19.363c1.978,8.715,10.647,14.177,19.362,12.199     C329.805,193.118,335.266,184.449,333.288,175.734z"/>
			<path style="fill:#605C5D;" d="M214.051,202.797c-1.978-8.715-10.647-14.177-19.362-12.199     c-8.715,1.978-14.177,10.647-12.199,19.362c1.978,8.715,10.647,14.177,19.362,12.199     C210.567,220.181,216.029,211.512,214.051,202.797z"/>
		</g>
		<g>
			<g>
				<path style="fill:#91A2B5;" d="M337.691,204.299c-2.517,0-4.789-1.735-5.37-4.293c-0.674-2.968,1.186-5.92,4.155-6.594      l24.935-5.659c2.969-0.679,5.921,1.187,6.595,4.154c0.674,2.969-1.186,5.921-4.155,6.594l-24.935,5.659      C338.505,204.255,338.095,204.299,337.691,204.299z"/>
				<path style="fill:#91A2B5;" d="M363.421,223.092c-0.241,0-0.484-0.016-0.73-0.049l-22.116-2.926      c-3.018-0.399-5.14-3.169-4.741-6.186c0.399-3.018,3.168-5.149,6.186-4.74l22.116,2.926c3.018,0.399,5.14,3.169,4.741,6.186      C368.51,221.075,366.143,223.092,363.421,223.092z"/>
			</g>
			<g>
				<path style="fill:#91A2B5;" d="M163.526,243.829c-2.517,0-4.789-1.735-5.37-4.293c-0.674-2.968,1.187-5.92,4.155-6.594      l24.935-5.659c2.97-0.681,5.92,1.187,6.595,4.154c0.674,2.969-1.187,5.921-4.155,6.594l-24.935,5.659      C164.34,243.785,163.929,243.829,163.526,243.829z"/>
				<path style="fill:#91A2B5;" d="M173.386,266.223c-1.801,0-3.565-0.881-4.622-2.502c-1.663-2.549-0.944-5.963,1.606-7.626      l18.686-12.186c2.55-1.666,5.964-0.945,7.627,1.606c1.663,2.549,0.944,5.963-1.606,7.626l-18.686,12.186      C175.462,265.933,174.418,266.223,173.386,266.223z"/>
			</g>
		</g>
		<g>
			<path style="fill:#FFFFFF;" d="M286.397,154.833c-2.517,0-4.789-1.735-5.37-4.292c-0.674-2.969,1.186-5.921,4.155-6.594     l13.081-2.969c2.971-0.678,5.92,1.187,6.594,4.154c0.674,2.969-1.186,5.921-4.155,6.594l-13.081,2.969     C287.211,154.789,286.801,154.833,286.397,154.833z"/>
			<path style="fill:#FFFFFF;" d="M200.294,174.375c-2.517,0-4.789-1.735-5.37-4.292c-0.674-2.969,1.186-5.921,4.155-6.594     l13.081-2.969c2.97-0.679,5.92,1.187,6.595,4.154c0.674,2.969-1.187,5.921-4.155,6.595l-13.081,2.969     C201.108,174.331,200.697,174.375,200.294,174.375z"/>
		</g>
		<g>
			<path style="fill:#67828E;" d="M247.992,239.628c0.2,0.883,0.416,1.742,0.643,2.555c4.362,15.408,13.645,17.438,23.881,15.115     c10.236-2.323,17.753-8.166,15.041-23.927c-0.147-0.832-0.322-1.7-0.527-2.603c-4.027-17.742-16.039-30.127-26.818-27.681     C249.434,205.534,243.965,221.886,247.992,239.628z"/>
			<path style="fill:#FD80A6;" d="M248.635,242.184c4.362,15.408,13.645,17.438,23.881,15.115     c10.236-2.323,17.753-8.166,15.041-23.927c-6.233-6.542-14.38-9.8-22.288-8.005C257.361,227.161,251.438,233.612,248.635,242.184     z"/>
			<path style="fill:#67828E;" d="M292.395,229.55c-2.168-9.548-6.53-18.08-12.286-24.024c-4.796-4.952-10.169-7.754-15.551-8.2     l-1.738-7.656l1.628-0.369c2.968-0.673,4.828-3.626,4.155-6.594c-0.674-2.968-3.626-4.834-6.594-4.155l-7.002,1.589     c0,0-0.001,0-0.001,0s-0.001,0-0.001,0l-7.002,1.589c-2.968,0.673-4.828,3.626-4.155,6.594c0.581,2.558,2.853,4.293,5.37,4.293     c0.404,0,0.814-0.044,1.225-0.138l1.628-0.369l1.738,7.658c-4.663,2.727-8.3,7.572-10.488,14.109     c-2.626,7.846-2.878,17.425-0.711,26.974c3.406,15.002,11.468,22.741,23.51,22.741c2.385,0,4.928-0.303,7.62-0.915     C290.023,258.98,296.474,247.525,292.395,229.55z M271.298,251.928c-8.734,1.981-14.779,0.411-17.94-13.518     c-1.701-7.496-1.55-15.164,0.414-21.035c1.651-4.934,4.444-8.183,7.661-8.913c3.213-0.728,7.138,0.995,10.757,4.732     c4.307,4.449,7.754,11.299,9.455,18.796C283.989,242.317,283.076,249.254,271.298,251.928z"/>
		</g>
	</g>
	<g>
		<g>
			<path style="fill:#89D770;" d="M429.196,294.362v22.948H244.398v-22.948c0-11.073,8.973-20.046,20.046-20.046H409.15     C420.223,274.316,429.196,283.289,429.196,294.362z"/>
			<path style="fill:#FFFFFF;" d="M429.201,317.315V438.64c0,11.073-8.973,20.046-20.046,20.046H264.449     c-8.829,0-16.341-5.722-18.996-13.645c-0.679-2.017-1.05-4.158-1.05-6.401V317.315H429.201z"/>
			<path style="fill:#6DB850;" d="M409.15,268.805H264.453c-14.094,0-25.56,11.466-25.56,25.559v144.277     c0,14.094,11.466,25.56,25.56,25.56H409.15c14.094,0,25.56-11.466,25.56-25.56V294.364     C434.71,280.271,423.243,268.805,409.15,268.805z M264.453,279.828H409.15c8.016,0,14.537,6.521,14.537,14.536v17.443H249.915     v-17.443C249.915,286.349,256.437,279.828,264.453,279.828z M409.15,453.179H264.453c-8.016,0-14.538-6.521-14.538-14.537V322.83     h173.772v115.812C423.687,446.658,417.165,453.179,409.15,453.179z"/>
			<ellipse style="fill:#FFFFFF;" cx="269.498" cy="296.79" rx="10.472" ry="10.299"/>
			<ellipse style="fill:#FFFFFF;" cx="302.257" cy="296.79" rx="10.472" ry="10.299"/>
		</g>
		<g>
			<g>
				<path style="fill:#605C5D;" d="M290.363,382.202l7.05-7.049c2.152-2.152,2.152-5.641,0-7.793c-2.153-2.153-5.641-2.153-7.794,0      l-7.049,7.049l-7.049-7.049c-2.153-2.153-5.641-2.153-7.794,0c-2.152,2.152-2.152,5.641,0,7.793l7.049,7.049l-7.049,7.05      c-2.152,2.152-2.152,5.641,0,7.793c1.076,1.076,2.486,1.615,3.897,1.615c1.411,0,2.821-0.538,3.897-1.615l7.049-7.049      l7.049,7.049c1.076,1.076,2.487,1.615,3.897,1.615s2.821-0.538,3.897-1.615c2.152-2.152,2.152-5.641,0-7.793L290.363,382.202z"/>
				<path style="fill:#605C5D;" d="M398.823,382.202l7.049-7.049c2.152-2.152,2.152-5.641,0-7.793c-2.153-2.153-5.642-2.153-7.794,0      l-7.049,7.049l-7.049-7.049c-2.152-2.153-5.642-2.153-7.794,0c-2.152,2.152-2.152,5.641,0,7.793l7.049,7.049l-7.049,7.05      c-2.152,2.152-2.152,5.641,0,7.793c1.076,1.076,2.487,1.615,3.897,1.615c1.411,0,2.821-0.538,3.897-1.615l7.049-7.049      l7.049,7.049c1.077,1.076,2.487,1.615,3.897,1.615c1.41,0,2.821-0.538,3.897-1.615c2.152-2.152,2.152-5.641,0-7.793      L398.823,382.202z"/>
			</g>
			<path style="fill:#605C5D;" d="M355.395,403.217c-3.044,0-5.511-2.468-5.511-5.511c0-7.215-5.869-13.084-13.084-13.084     s-13.084,5.869-13.084,13.084c0,3.043-2.468,5.511-5.511,5.511s-5.511-2.468-5.511-5.511c0-13.293,10.814-24.107,24.107-24.107     c13.293,0,24.107,10.814,24.107,24.107C360.906,400.749,358.439,403.217,355.395,403.217z"/>
		</g>
	</g>
	<g>
		<path style="fill:#FD80A6;" d="M278.793,342.161v22.948H93.995v-22.948c0-11.073,8.973-20.046,20.046-20.046h144.706    C269.82,322.115,278.793,331.088,278.793,342.161z"/>
		<path style="fill:#FFFFFF;" d="M278.798,365.114v121.326c0,11.073-8.973,20.046-20.046,20.046H114.046    c-8.829,0-16.341-5.722-18.996-13.645c-0.679-2.017-1.05-4.157-1.05-6.401V365.114H278.798z"/>
		<path style="fill:#FE518E;" d="M258.747,316.604H114.05c-14.094,0-25.56,11.466-25.56,25.559V486.44    c0,14.094,11.466,25.56,25.56,25.56h144.697c14.094,0,25.56-11.466,25.56-25.56V342.163    C284.307,328.07,272.841,316.604,258.747,316.604z M114.05,327.626h144.697c8.016,0,14.537,6.521,14.537,14.536v17.443H99.513    v-17.443C99.513,334.148,106.034,327.626,114.05,327.626z M258.747,500.978H114.05c-8.016,0-14.537-6.521-14.537-14.538V370.628    h173.771V486.44C273.284,494.456,266.763,500.978,258.747,500.978z"/>
		<ellipse style="fill:#FFFFFF;" cx="119.096" cy="344.589" rx="10.472" ry="10.299"/>
		<ellipse style="fill:#FFFFFF;" cx="151.855" cy="344.589" rx="10.472" ry="10.299"/>
		<g>
			<path style="fill:#605C5D;" d="M139.963,425.248l7.05-7.049c2.152-2.152,2.152-5.641,0-7.793c-2.153-2.153-5.641-2.153-7.794,0     l-7.049,7.049l-7.049-7.049c-2.153-2.153-5.641-2.153-7.794,0c-2.152,2.152-2.152,5.641,0,7.793l7.05,7.049l-7.05,7.049     c-2.152,2.152-2.152,5.641,0,7.793c1.076,1.076,2.487,1.615,3.897,1.615c1.411,0,2.821-0.538,3.897-1.615l7.049-7.049     l7.049,7.049c1.076,1.076,2.486,1.615,3.897,1.615s2.821-0.538,3.897-1.615c2.152-2.152,2.152-5.641,0-7.793L139.963,425.248z"/>
			<path style="fill:#605C5D;" d="M248.422,425.248l7.05-7.049c2.152-2.152,2.152-5.641,0-7.793c-2.153-2.153-5.641-2.153-7.794,0     l-7.049,7.049l-7.049-7.049c-2.153-2.153-5.641-2.153-7.794,0c-2.152,2.152-2.152,5.641,0,7.793l7.049,7.049l-7.049,7.049     c-2.152,2.152-2.152,5.641,0,7.793c1.076,1.076,2.486,1.615,3.897,1.615c1.411,0,2.821-0.538,3.897-1.615l7.049-7.049     l7.049,7.049c1.076,1.076,2.487,1.615,3.897,1.615c1.411,0,2.821-0.538,3.897-1.615c2.152-2.152,2.152-5.641,0-7.793     L248.422,425.248z"/>
		</g>
		<path style="fill:#605C5D;" d="M204.995,446.264c-3.044,0-5.511-2.468-5.511-5.511c0-7.215-5.869-13.084-13.084-13.084    c-7.215,0-13.084,5.869-13.084,13.084c0,3.043-2.467,5.511-5.511,5.511c-3.044,0-5.511-2.468-5.511-5.511    c0-13.293,10.814-24.107,24.107-24.107c13.293,0,24.107,10.814,24.107,24.107C210.506,443.796,208.038,446.264,204.995,446.264z"/>
	</g>
	<ellipse style="fill:#B1B9C6;" cx="194.743" cy="306.136" rx="56.831" ry="28.154"/>
	<path style="fill:#67828E;" d="M194.743,339.802c-34.958,0-62.342-14.788-62.342-33.665c0-18.877,27.384-33.665,62.342-33.665   c34.959,0,62.343,14.788,62.343,33.665C257.086,325.014,229.702,339.802,194.743,339.802z M194.743,283.493   c-30.243,0-51.32,11.934-51.32,22.643c0,10.709,21.076,22.643,51.32,22.643c30.244,0,51.32-11.934,51.32-22.643   C246.063,295.427,224.987,283.493,194.743,283.493z"/>
	<g>
		<path style="fill:#B1B9C6;" d="M383.362,243.662c17.526,2.419,30.884,10.53,28.465,28.056    c-2.419,17.526-18.588,29.772-36.114,27.352c-17.526-2.419-29.772-18.588-27.352-36.114    C350.78,245.43,365.836,241.242,383.362,243.662z"/>
		<path style="fill:#67828E;" d="M380.118,304.885c-1.703,0-3.425-0.116-5.159-0.355c-20.508-2.832-34.889-21.82-32.058-42.328    c1.386-10.036,6.557-17.422,14.955-21.362c6.844-3.212,15.678-4.098,26.26-2.637c10.58,1.46,18.844,4.708,24.563,9.654    c7.017,6.068,9.993,14.579,8.607,24.615C414.694,291.246,398.562,304.885,380.118,304.885z M374.788,248.549    c-4.881,0-9.039,0.763-12.251,2.27c-4.991,2.341-7.843,6.557-8.717,12.89c-2,14.488,8.159,27.902,22.646,29.902    c14.485,2.004,27.901-8.159,29.901-22.647c0.874-6.332-0.728-11.164-4.898-14.77c-4.023-3.479-10.545-5.924-18.861-7.072h-0.001    C379.84,248.739,377.224,248.549,374.788,248.549z"/>
	</g>
</g>
<g>
</g>
<g>
</g>
<g>
</g>
<g>
</g>
<g>
</g>
<g>
</g>
<g>
</g>
<g>
</g>
<g>
</g>
<g>
</g>
<g>
</g>
<g>
</g>
<g>
</g>
<g>
</g>
<g>
</g>
</svg>
